<svg width="15" height="15" viewBox="0 0 15 15" fill="none" xmlns="http://www.w3.org/2000/svg">
<g clip-path="url(#clip0_17_19)">
<path d="M1.75826 9.66667L0.966589 13.0833C0.939279 13.2082 0.940215 13.3377 0.969329 13.4621C0.998442 13.5866 1.055 13.703 1.13486 13.8029C1.21473 13.9027 1.31589 13.9834 1.43095 14.0392C1.54602 14.0949 1.67208 14.1242 1.79992 14.125C1.85949 14.131 1.91952 14.131 1.97909 14.125L5.41659 13.3333L12.0166 6.75834L8.33325 3.08334L1.75826 9.66667Z" fill="#F8F8F8"/>
<path d="M14.0917 3.46667L11.6334 1.00833C11.4718 0.847527 11.253 0.757256 11.025 0.757256C10.7971 0.757256 10.5783 0.847527 10.4167 1.00833L9.05005 2.375L12.7292 6.05417L14.0959 4.6875C14.1759 4.60712 14.2392 4.51175 14.2823 4.40686C14.3254 4.30197 14.3473 4.18961 14.347 4.07622C14.3466 3.96283 14.3238 3.85062 14.28 3.74603C14.2362 3.64143 14.1722 3.5465 14.0917 3.46667Z" fill="#F8F8F8"/>
</g>
<defs>
<clipPath id="clip0_17_19">
<rect width="15" height="15" fill="white"/>
</clipPath>
</defs>
</svg>
