<svg width="24" height="24" viewBox="0 0 24 24" fill="none" xmlns="http://www.w3.org/2000/svg">
<path d="M17.15 3H3.85C3.09413 3 2.36922 3.33583 1.83475 3.9336C1.30027 4.53137 1 5.34212 1 6.1875V16.8125C1 17.6579 1.30027 18.4686 1.83475 19.0664C2.36922 19.6642 3.09413 20 3.85 20H17.15C17.9059 20 18.6308 19.6642 19.1653 19.0664C19.6997 18.4686 20 17.6579 20 16.8125V6.1875C20 5.34212 19.6997 4.53137 19.1653 3.9336C18.6308 3.33583 17.9059 3 17.15 3ZM16.5135 5.125L10.5 10.1719L4.4865 5.125H16.5135ZM17.15 17.875H3.85C3.59804 17.875 3.35641 17.7631 3.17825 17.5638C3.00009 17.3645 2.9 17.0943 2.9 16.8125V6.45312L9.93 12.35C10.0944 12.4879 10.2944 12.5625 10.5 12.5625C10.7056 12.5625 10.9056 12.4879 11.07 12.35L18.1 6.45312V16.8125C18.1 17.0943 17.9999 17.3645 17.8218 17.5638C17.6436 17.7631 17.402 17.875 17.15 17.875Z" fill="black"/>
</svg>
