<svg width="22" height="20" viewBox="0 0 22 20" fill="none" xmlns="http://www.w3.org/2000/svg">
<path d="M6.41665 1.66667C8.04831 1.66667 8.86415 3.46667 7.71831 4.51667C6.56331 5.55834 4.58331 4.81667 4.58331 3.33334C4.58331 2.89131 4.77647 2.46739 5.12028 2.15483C5.4641 1.84227 5.93042 1.66667 6.41665 1.66667ZM5.04165 5.83334H7.79165C8.27788 5.83334 8.74419 6.00893 9.08801 6.32149C9.43183 6.63405 9.62498 7.05798 9.62498 7.5V12.0833H8.24998V18.3333H4.58331V12.0833H3.20831V7.5C3.20831 7.05798 3.40147 6.63405 3.74528 6.32149C4.0891 6.00893 4.55542 5.83334 5.04165 5.83334ZM17.4166 6.66667H19.25L16.5 3.33334L13.75 6.66667H15.5833V13.3333H13.75L16.5 16.6667L19.25 13.3333H17.4166M20.1666 1.66667H12.8333V3.33334H20.1666M20.1666 16.6667H12.8333V18.3333H20.1666" fill="black"/>
</svg>
