<svg width="15" height="18" viewBox="0 0 15 18" fill="none" xmlns="http://www.w3.org/2000/svg">
<g clip-path="url(#clip0_14_580)">
<path d="M4.16667 8.18182H10.8333V5.72727C10.8333 4.82386 10.5078 4.05256 9.85677 3.41335C9.20573 2.77415 8.42014 2.45455 7.5 2.45455C6.57986 2.45455 5.79427 2.77415 5.14323 3.41335C4.49219 4.05256 4.16667 4.82386 4.16667 5.72727V8.18182ZM15 9.40909V16.7727C15 17.1136 14.8785 17.4034 14.6354 17.642C14.3924 17.8807 14.0972 18 13.75 18H1.25C0.902778 18 0.607639 17.8807 0.364583 17.642C0.121528 17.4034 0 17.1136 0 16.7727V9.40909C0 9.06818 0.121528 8.77841 0.364583 8.53977C0.607639 8.30114 0.902778 8.18182 1.25 8.18182H1.66667V5.72727C1.66667 4.15909 2.23958 2.8125 3.38542 1.6875C4.53125 0.5625 5.90278 0 7.5 0C9.09722 0 10.4688 0.5625 11.6146 1.6875C12.7604 2.8125 13.3333 4.15909 13.3333 5.72727V8.18182H13.75C14.0972 8.18182 14.3924 8.30114 14.6354 8.53977C14.8785 8.77841 15 9.06818 15 9.40909Z" fill="black"/>
</g>
<defs>
<clipPath id="clip0_14_580">
<rect width="15" height="18" fill="white"/>
</clipPath>
</defs>
</svg>
