<svg width="21" height="21" viewBox="0 0 21 21" fill="none" xmlns="http://www.w3.org/2000/svg">
<path d="M7.78752 7.91875C7.91516 7.91875 8.03757 7.96945 8.12782 8.0597C8.21807 8.14995 8.26877 8.27236 8.26877 8.4V14.175C8.26877 14.3026 8.21807 14.425 8.12782 14.5153C8.03757 14.6055 7.91516 14.6562 7.78752 14.6562C7.65989 14.6562 7.53748 14.6055 7.44723 14.5153C7.35698 14.425 7.30627 14.3026 7.30627 14.175V8.4C7.30627 8.27236 7.35698 8.14995 7.44723 8.0597C7.53748 7.96945 7.65989 7.91875 7.78752 7.91875ZM10.1938 7.91875C10.3214 7.91875 10.4438 7.96945 10.5341 8.0597C10.6243 8.14995 10.675 8.27236 10.675 8.4V14.175C10.675 14.3026 10.6243 14.425 10.5341 14.5153C10.4438 14.6055 10.3214 14.6562 10.1938 14.6562C10.0661 14.6562 9.94373 14.6055 9.85348 14.5153C9.76323 14.425 9.71252 14.3026 9.71252 14.175V8.4C9.71252 8.27236 9.76323 8.14995 9.85348 8.0597C9.94373 7.96945 10.0661 7.91875 10.1938 7.91875ZM13.0813 8.4C13.0813 8.27236 13.0306 8.14995 12.9403 8.0597C12.8501 7.96945 12.7277 7.91875 12.6 7.91875C12.4724 7.91875 12.35 7.96945 12.2597 8.0597C12.1695 8.14995 12.1188 8.27236 12.1188 8.4V14.175C12.1188 14.3026 12.1695 14.425 12.2597 14.5153C12.35 14.6055 12.4724 14.6562 12.6 14.6562C12.7277 14.6562 12.8501 14.6055 12.9403 14.5153C13.0306 14.425 13.0813 14.3026 13.0813 14.175V8.4Z" fill="white"/>
<path fill-rule="evenodd" clip-rule="evenodd" d="M16.45 5.5125C16.45 5.76777 16.3486 6.01259 16.1681 6.19309C15.9876 6.37359 15.7428 6.475 15.4875 6.475H15.0063V15.1375C15.0063 15.648 14.8034 16.1377 14.4424 16.4987C14.0814 16.8597 13.5918 17.0625 13.0813 17.0625H7.30625C6.79571 17.0625 6.30608 16.8597 5.94507 16.4987C5.58406 16.1377 5.38125 15.648 5.38125 15.1375V6.475H4.9C4.64473 6.475 4.39991 6.37359 4.21941 6.19309C4.03891 6.01259 3.9375 5.76777 3.9375 5.5125V4.55C3.9375 4.29473 4.03891 4.04991 4.21941 3.86941C4.39991 3.68891 4.64473 3.5875 4.9 3.5875H8.26875C8.26875 3.33223 8.37016 3.08741 8.55066 2.90691C8.73116 2.72641 8.97598 2.625 9.23125 2.625H11.1563C11.4115 2.625 11.6563 2.72641 11.8368 2.90691C12.0173 3.08741 12.1188 3.33223 12.1188 3.5875H15.4875C15.7428 3.5875 15.9876 3.68891 16.1681 3.86941C16.3486 4.04991 16.45 4.29473 16.45 4.55V5.5125ZM6.45733 6.475L6.34375 6.53179V15.1375C6.34375 15.3928 6.44516 15.6376 6.62566 15.8181C6.80616 15.9986 7.05098 16.1 7.30625 16.1H13.0813C13.3365 16.1 13.5813 15.9986 13.7618 15.8181C13.9423 15.6376 14.0438 15.3928 14.0438 15.1375V6.53179L13.9302 6.475H6.45733ZM4.9 5.5125V4.55H15.4875V5.5125H4.9Z" fill="white"/>
</svg>
