<svg width="21" height="21" viewBox="0 0 21 21" fill="none" xmlns="http://www.w3.org/2000/svg">
<path d="M16.625 2.625H4.375C3.4125 2.625 2.625 3.4125 2.625 4.375V16.625C2.625 17.5875 3.4125 18.375 4.375 18.375H16.625C17.5875 18.375 18.375 17.5875 18.375 16.625V4.375C18.375 3.4125 17.5875 2.625 16.625 2.625ZM10.5 10.5C9.0475 10.5 7.875 9.3275 7.875 7.875C7.875 6.4225 9.0475 5.25 10.5 5.25C11.9525 5.25 13.125 6.4225 13.125 7.875C13.125 9.3275 11.9525 10.5 10.5 10.5Z" fill="black"/>
<path d="M9.1875 8.3125C9.42912 8.3125 9.625 8.11662 9.625 7.875C9.625 7.63338 9.42912 7.4375 9.1875 7.4375C8.94588 7.4375 8.75 7.63338 8.75 7.875C8.75 8.11662 8.94588 8.3125 9.1875 8.3125Z" fill="black"/>
<path d="M11.8125 8.3125C12.0541 8.3125 12.25 8.11662 12.25 7.875C12.25 7.63338 12.0541 7.4375 11.8125 7.4375C11.5709 7.4375 11.375 7.63338 11.375 7.875C11.375 8.11662 11.5709 8.3125 11.8125 8.3125Z" fill="black"/>
<path d="M10.5 8.3125C10.7416 8.3125 10.9375 8.11662 10.9375 7.875C10.9375 7.63338 10.7416 7.4375 10.5 7.4375C10.2584 7.4375 10.0625 7.63338 10.0625 7.875C10.0625 8.11662 10.2584 8.3125 10.5 8.3125Z" fill="black"/>
</svg>
